<?xml version="1.0" encoding="UTF-8"?>
<svg version="1.1" xmlns="http://www.w3.org/2000/svg" width="110" height="106">
<path d="M0 0 C36.3 0 72.6 0 110 0 C110 34.98 110 69.96 110 106 C73.7 106 37.4 106 0 106 C0 71.02 0 36.04 0 0 Z " fill="#06051A" transform="translate(0,0)"/>
<path d="M0 0 C3.63 0.33 7.26 0.66 11 1 C11 2.32 11 3.64 11 5 C11.66 4.34 12.32 3.68 13 3 C15.9425963 3.30652045 18.34542308 3.67271154 21 5 C20.67 6.32 20.34 7.64 20 9 C20.721875 8.7525 21.44375 8.505 22.1875 8.25 C25 8 25 8 27.8125 9.75 C30 12 30 12 30 15 C30.928125 15.1546875 30.928125 15.1546875 31.875 15.3125 C34 16 34 16 36 19 C35.625 21.1875 35.625 21.1875 35 23 C35.928125 23.0928125 35.928125 23.0928125 36.875 23.1875 C39 24 39 24 40.25 26.375 C41 29 41 29 41 32 C40.01 32.33 39.02 32.66 38 33 C38.639375 33.28875 39.27875 33.5775 39.9375 33.875 C42 35 42 35 43 37 C43.039992 38.99960012 43.04346799 41.00047242 43 43 C42.01 43.33 41.02 43.66 40 44 C40.99 44.66 41.98 45.32 43 46 C43.34057617 48.98095703 43.34057617 48.98095703 43.29296875 52.7578125 C43.28872391 53.42086395 43.28447906 54.08391541 43.28010559 54.76705933 C43.26329971 56.88678441 43.22564701 59.00556188 43.1875 61.125 C43.17245549 62.56118419 43.15876668 63.99738328 43.14648438 65.43359375 C43.1133909 68.95603764 43.0615968 72.47792636 43 76 C43.99 76 44.98 76 46 76 C46 76.66 46 77.32 46 78 C45.01 78 44.02 78 43 78 C43 78.66 43 79.32 43 80 C43.99 80 44.98 80 46 80 C46 81.65 46 83.3 46 85 C29.83 85 13.66 85 -3 85 C-3 83.35 -3 81.7 -3 80 C-2.01 80 -1.02 80 0 80 C0 79.34 0 78.68 0 78 C-0.99 78 -1.98 78 -3 78 C-3 77.34 -3 76.68 -3 76 C-2.01 76 -1.02 76 0 76 C-0.0825 74.948125 -0.165 73.89625 -0.25 72.8125 C-0.28604536 66.12007856 2.01958537 58.96082925 5 53 C8.63 53 12.26 53 16 53 C15.88599631 49.91590024 15.75924798 46.83322863 15.625 43.75 C15.5940625 42.87730469 15.563125 42.00460938 15.53125 41.10546875 C15.49257813 40.26113281 15.45390625 39.41679688 15.4140625 38.546875 C15.36693115 37.38430176 15.36693115 37.38430176 15.31884766 36.19824219 C14.96973494 33.79134258 14.19448896 32.10397705 13 30 C12.18501438 31.6029053 11.37310073 33.20737278 10.5625 34.8125 C10.11003906 35.70582031 9.65757813 36.59914062 9.19140625 37.51953125 C7.9168395 40.03999478 7.9168395 40.03999478 7 43 C4.69 43 2.38 43 0 43 C0 34.09 0 25.18 0 16 C1.65 15.67 3.3 15.34 5 15 C4.175 14.38125 3.35 13.7625 2.5 13.125 C0.50986993 11.19092993 0.03081956 10.23749193 -0.33203125 7.44140625 C-0.31442221 4.958532 -0.16516249 2.47743738 0 0 Z " fill="#C9C5D3" transform="translate(37,10)"/>
<path d="M0 0 C1.65 0 3.3 0 5 0 C5 3.96 5 7.92 5 12 C2.03 12 -0.94 12 -4 12 C-3.45660208 7.43545749 -2.20536179 4.0271824 0 0 Z " fill="#0F0E21" transform="translate(48,73)"/>
<path d="M0 0 C8.90697592 3.05382032 13.89768778 10.01308168 18.11328125 18.1484375 C20.0807716 22.8666845 20.27226422 26.91773462 20 32 C18.13230962 29.19846444 17.57935659 27.67036013 16.8125 24.5 C14.13202424 15.31937051 8.95507706 8.15222431 1.50390625 2.2421875 C1.00761719 1.83226563 0.51132812 1.42234375 0 1 C0 0.67 0 0.34 0 0 Z " fill="#141324" transform="translate(47,23)"/>
<path d="M0 0 C4.73943655 5.60115228 5.24322543 10.94646251 5 18 C3.15963319 15.23944978 2.31655886 13.25401883 1.375 10.125 C1.11460938 9.28195313 0.85421875 8.43890625 0.5859375 7.5703125 C-0.00963022 4.95775542 -0.10525251 2.66958629 0 0 Z " fill="#2A2939" transform="translate(62,37)"/>
<path d="M0 0 C4.43458973 1.3937282 6.87378374 3.60582235 10 7 C6.433255 7 5.89456323 6.36308045 3.3125 4.0625 C2.68988281 3.51722656 2.06726562 2.97195312 1.42578125 2.41015625 C0.95527344 1.94480469 0.48476563 1.47945312 0 1 C0 0.67 0 0.34 0 0 Z " fill="#353443" transform="translate(47,23)"/>
</svg>
