<?xml version="1.0" encoding="UTF-8"?>
<svg version="1.1" xmlns="http://www.w3.org/2000/svg" width="126" height="120">
<path d="M0 0 C41.58 0 83.16 0 126 0 C126 39.6 126 79.2 126 120 C84.42 120 42.84 120 0 120 C0 80.4 0 40.8 0 0 Z " fill="#EFEFEF" transform="translate(0,0)"/>
<path d="M0 0 C2.0625 0.4375 2.0625 0.4375 4 1 C4.33 2.32 4.66 3.64 5 5 C4.34 5 3.68 5 3 5 C3.72316406 5.92232422 3.72316406 5.92232422 4.4609375 6.86328125 C5.40839844 8.07564453 5.40839844 8.07564453 6.375 9.3125 C7.00148438 10.11300781 7.62796875 10.91351563 8.2734375 11.73828125 C12.02537892 16.65315474 12.02537892 16.65315474 11.8125 19.5625 C11 22 11 22 8 24 C9.65 24.33 11.3 24.66 13 25 C12.484375 25.5775 11.96875 26.155 11.4375 26.75 C9.77387708 28.84769872 9.77387708 28.84769872 10.1875 31.0625 C11.03815934 33.26281815 11.03815934 33.26281815 13 36 C11.68 36 10.36 36 9 36 C11.60234396 49.93762804 11.60234396 49.93762804 15.25 63.625 C17.33366156 70.62544397 18.2908496 76.55773441 15.6875 83.5 C14 86 14 86 11 88 C13.64 88.33 16.28 88.66 19 89 C18.6875 90.875 18.6875 90.875 18 93 C17.01 93.66 16.02 94.32 15 95 C17.31 96.32 19.62 97.64 22 99 C22 100.32 22 101.64 22 103 C8.47 103 -5.06 103 -19 103 C-18.67 101.35 -18.34 99.7 -18 98 C-14.9375 96.1875 -14.9375 96.1875 -12 95 C-12.66 94.566875 -13.32 94.13375 -14 93.6875 C-14.66 93.130625 -15.32 92.57375 -16 92 C-16 91.01 -16 90.02 -16 89 C-14.35 89 -12.7 89 -11 89 C-11.495 88.0925 -11.99 87.185 -12.5 86.25 C-16.99215639 75.24747204 -12.590673 64.05936082 -9.46875 53.2734375 C-7.83203046 47.5632406 -6.72204219 41.90082754 -6 36 C-7.32 35.67 -8.64 35.34 -10 35 C-9.484375 34.5875 -8.96875 34.175 -8.4375 33.75 C-6.75226084 32.11709874 -6.75226084 32.11709874 -7.1875 30 C-8.02659892 27.74262618 -8.02659892 27.74262618 -10 25 C-9.01 25 -8.02 25 -7 25 C-7.66 24.01 -8.32 23.02 -9 22 C-8.625 18.3125 -8.625 18.3125 -8 15 C-6.35 15.33 -4.7 15.66 -3 16 C-3.2475 15.29875 -3.495 14.5975 -3.75 13.875 C-4.09959252 9.85468598 -2.39182187 8.11661638 0 5 C-0.66 5 -1.32 5 -2 5 C-1.125 1.125 -1.125 1.125 0 0 Z " fill="#21326B" transform="translate(63,7)"/>
<path d="M0 0 C1.65 0 3.3 0 5 0 C4.67 2.64 4.34 5.28 4 8 C4.99 8 5.98 8 7 8 C7 8.66 7 9.32 7 10 C6.01 10 5.02 10 4 10 C4 24.19 4 38.38 4 53 C3.01 53 2.02 53 1 53 C1 39.14 1 25.28 1 11 C0.01 10.67 -0.98 10.34 -2 10 C-2 9.34 -2 8.68 -2 8 C-1.01 8 -0.02 8 1 8 C0.67 5.36 0.34 2.72 0 0 Z " fill="#E0E1E6" transform="translate(62,43)"/>
<path d="M0 0 C1.65 0 3.3 0 5 0 C4.67 2.64 4.34 5.28 4 8 C4.99 8 5.98 8 7 8 C7 8.66 7 9.32 7 10 C6.01 10 5.02 10 4 10 C4 13.63 4 17.26 4 21 C3.67 21 3.34 21 3 21 C2.67 17.7 2.34 14.4 2 11 C0.68 10.67 -0.64 10.34 -2 10 C-2 9.34 -2 8.68 -2 8 C-1.01 8 -0.02 8 1 8 C0.67 5.36 0.34 2.72 0 0 Z " fill="#BEC3D2" transform="translate(62,43)"/>
<path d="M0 0 C2.0625 0.4375 2.0625 0.4375 4 1 C4.33 2.32 4.66 3.64 5 5 C3.02 5.99 3.02 5.99 1 7 C0.01 6.34 -0.98 5.68 -2 5 C-1.125 1.125 -1.125 1.125 0 0 Z " fill="#28386F" transform="translate(63,7)"/>
<path d="M0 0 C1.65 0 3.3 0 5 0 C4.67 2.64 4.34 5.28 4 8 C3.01 8 2.02 8 1 8 C0.67 5.36 0.34 2.72 0 0 Z " fill="#949DB7" transform="translate(62,43)"/>
<path d="M0 0 C0 3.11227195 -0.45627049 5.94152152 -1 9 C-1.99 8.34 -2.98 7.68 -4 7 C-3.43628586 3.73045798 -2.50037734 2.17424117 0 0 Z " fill="#E6E6E9" transform="translate(76,32)"/>
</svg>
